<?xml version="1.0" encoding="utf-8"?>
<!-- Generator: Adobe Illustrator 16.0.3, SVG Export Plug-In . SVG Version: 6.00 Build 0)  -->
<!DOCTYPE svg PUBLIC "-//W3C//DTD SVG 1.1//EN" "http://www.w3.org/Graphics/SVG/1.1/DTD/svg11.dtd">
<svg version="1.1" id="Ebene_1" xmlns="http://www.w3.org/2000/svg" xmlns:xlink="http://www.w3.org/1999/xlink" x="0px" y="0px"
	 width="573.058px" height="492.049px" viewBox="0 0 573.058 492.049" enable-background="new 0 0 573.058 492.049"
	 xml:space="preserve">
<g>
	<path fill="#E4003A" d="M555.882,18.148l-265.13,459.211L25.632,18.148H555.882L555.882,18.148z M158.212,94.695l132.539,229.576
		L423.296,94.695H158.212L158.212,94.695z"/>
	<polygon points="555.882,247.631 555.882,132.805 25.632,132.805 25.632,247.631 555.882,247.631 	"/>
	<polygon fill="#FFFFFF" points="223.568,207.975 250.726,150.254 270.929,150.254 233.728,230.176 213.355,230.176
		177.337,150.254 196.832,150.254 223.568,207.975 	"/>
	<path fill="#FFFFFF" d="M372.729,150.26h-56.625v15.217h38.244v29.66c0,14.25-10.998,20.73-19.611,20.73
		c-5.953,0-15.785-2.865-19.306-15l-15.428,3.738c2.496,11.789,14.93,27.504,35.601,27.504c21.621,0,37.125-13.729,37.125-42.422
		V150.26L372.729,150.26z"/>
	<polygon fill="#FFFFFF" points="516.284,230.352 516.284,150.359 498.905,150.359 470.048,188.07 441.19,150.359 423.812,150.359
		423.812,230.352 442.175,230.352 442.175,178.859 467.147,211.402 472.948,211.402 497.921,178.859 497.921,230.352
		516.284,230.352 	"/>
	<path fill="#FFFFFF" d="M140.23,160.871c-8.455-8.719-20.918-13.371-34.594-13.377c-24.855,0.012-45.773,15.299-45.773,42.68
		s20.93,42.674,45.773,42.674c14.854,0,28.283-5.502,36.703-15.75l-14.361-10.512c-5.063,6.521-13.254,10.02-22.342,10.02
		c-14.977,0-27.598-9.469-27.598-26.432s12.604-26.432,27.598-26.438c0,0-0.012,0-0.018,0c0.018,0,0.018,0,0.035,0h-0.018
		c8.391,0.006,16.031,2.971,21.146,8.561L140.23,160.871L140.23,160.871z M105.636,147.494c0,0,0.018,0,0.023,0
		c-0.012,0-0.035,0-0.047,0C105.619,147.494,105.625,147.494,105.636,147.494L105.636,147.494z"/>
</g>
</svg>
